<?xml version="1.0" standalone="no"?>
<!DOCTYPE svg PUBLIC "-//W3C//DTD SVG 20010904//EN"
 "http://www.w3.org/TR/2001/REC-SVG-20010904/DTD/svg10.dtd">
<svg version="1.0" xmlns="http://www.w3.org/2000/svg"
 width="500.000000pt" height="500.000000pt" viewBox="0 0 500.000000 500.000000"
 preserveAspectRatio="xMidYMid meet">
<metadata>
Created by potrace 1.14, written by Peter Selinger 2001-2017
</metadata>
<g transform="translate(0.000000,500.000000) scale(0.100000,-0.100000)"
fill="#000000" stroke="none">
<path d="M2488 4205 c-3 -3 -27 -8 -54 -11 -72 -7 -105 -11 -144 -19 -19 -3
-43 -7 -52 -9 -10 -1 -21 -5 -24 -9 -4 -4 -16 -7 -27 -7 -23 0 -46 -7 -157
-46 -41 -14 -85 -28 -97 -31 -12 -3 -28 -11 -34 -19 -6 -8 -17 -14 -23 -14
-32 0 -298 -157 -356 -210 -10 -8 -30 -24 -45 -35 -41 -28 -193 -180 -240
-240 -22 -27 -48 -56 -57 -63 -10 -7 -18 -18 -18 -23 0 -8 -35 -64 -50 -79 -7
-7 -27 -40 -41 -65 -5 -11 -21 -38 -34 -60 -24 -39 -96 -185 -96 -195 -1 -3
-5 -11 -11 -17 -6 -7 -8 -13 -4 -13 4 0 0 -12 -8 -27 -13 -26 -43 -110 -52
-143 -2 -8 -10 -40 -18 -70 -26 -95 -42 -223 -41 -322 0 -43 -2 -78 -5 -78 -3
0 -5 -40 -5 -90 0 -49 2 -90 5 -90 3 0 5 -21 6 -48 1 -54 13 -162 19 -172 2
-4 7 -22 10 -41 14 -80 77 -278 101 -316 8 -13 12 -23 10 -23 -6 0 44 -102 53
-110 3 -3 17 -26 29 -52 47 -92 157 -250 224 -319 9 -10 16 -19 15 -21 -1 -1
28 -33 66 -69 37 -36 67 -64 67 -62 0 4 34 -24 69 -57 14 -14 40 -34 56 -46
92 -64 155 -105 199 -128 27 -14 55 -31 61 -36 7 -6 23 -13 35 -15 12 -2 27
-9 34 -14 38 -32 309 -122 406 -136 14 -2 26 -4 28 -6 7 -5 92 -20 153 -25 74
-7 359 -10 359 -4 0 3 19 5 43 4 23 0 58 3 77 7 19 5 51 11 70 14 19 3 69 15
110 26 41 11 80 21 85 22 9 2 21 7 90 33 11 4 22 8 25 8 28 6 120 52 120 60 0
5 3 6 6 3 6 -6 72 27 184 91 16 9 30 20 30 25 0 4 4 7 9 7 10 0 102 60 125 82
8 7 32 26 53 43 21 16 62 52 91 80 45 42 80 81 195 216 53 62 194 305 184 315
-3 3 -11 -1 -19 -8 -14 -14 -38 -22 -38 -13 0 12 64 75 76 75 10 0 54 78 58
105 1 6 4 15 8 20 3 6 14 39 23 75 9 36 19 72 22 80 3 8 7 20 8 25 0 6 4 21 8
35 3 14 9 39 11 55 3 17 7 41 11 55 3 14 8 59 11 100 3 41 6 86 7 100 2 14 -1
33 -6 43 -4 9 -4 17 1 17 5 0 7 28 5 62 -2 35 -4 69 -4 76 1 6 1 18 2 25 0 18
-10 122 -16 154 -13 74 -33 168 -35 168 -1 0 -3 8 -5 18 -8 43 -49 166 -71
215 -13 29 -24 56 -24 61 0 12 -80 163 -96 182 -8 8 -14 20 -14 25 0 7 -86
140 -100 154 -3 3 -18 23 -35 45 -59 80 -194 222 -207 218 -5 -2 -8 1 -8 6 0
7 -43 45 -135 116 -40 32 -184 123 -214 136 -17 8 -31 18 -31 22 0 5 -4 5 -10
2 -5 -3 -10 -1 -10 5 0 6 -4 8 -10 5 -5 -3 -10 -1 -10 4 0 6 -6 11 -12 12 -7
0 -35 11 -63 24 -27 13 -53 21 -57 19 -5 -3 -8 0 -8 5 0 6 -7 11 -15 11 -8 0
-23 4 -33 10 -15 9 -142 47 -181 55 -9 2 -27 6 -41 9 -63 15 -84 18 -200 31
-100 11 -110 11 -110 2 0 -6 -5 -6 -12 0 -15 11 -183 11 -194 0 -4 -4 -12 -2
-19 3 -7 5 -14 7 -17 5z m-295 -532 c-3 -7 -9 -10 -14 -7 -14 8 -11 21 5 21 8
0 12 -6 9 -14z"/>
</g>
</svg>
